<?xml version="1.0" encoding="utf-8"?>
<!-- Generator: Adobe Illustrator 18.1.1, SVG Export Plug-In . SVG Version: 6.00 Build 0)  -->
<!DOCTYPE svg PUBLIC "-//W3C//DTD SVG 1.1//EN" "http://www.w3.org/Graphics/SVG/1.1/DTD/svg11.dtd">
<svg version="1.1" id="Layer_1" xmlns="http://www.w3.org/2000/svg" xmlns:xlink="http://www.w3.org/1999/xlink" x="0px" y="0px"
	 viewBox="0 0 125 35" enable-background="new 0 0 125 35" xml:space="preserve">
<g>
	<path fill="#FFFFFF" d="M6.5,7.3C6.5,8,6,8.5,5.3,8.5S4,8,4,7.3s0.5-1.2,1.2-1.2S6.5,6.7,6.5,7.3z M5.9,25.8H4.5V12h1.4V25.8z"/>
	<path fill="#FFFFFF" d="M12.4,25.8h-1.3V1.1h1.3V25.8z"/>
	<path fill="#FFFFFF" d="M14.5,12h1.4l5.9,12.5L27.1,12h1.4l-9.3,22h-1.4l3.3-7.9L14.5,12z"/>
	<path fill="#FFFFFF" d="M41.4,15.2c-1.3-1.4-2.9-2.2-4.9-2.2c-3.3,0-5.7,2.8-5.7,5.9s2.4,6,5.7,6c2,0,3.8-1,5.1-2.5v1.8
		c-1.4,1.2-3.2,1.9-5,1.9c-4.1,0-7.1-3.2-7.1-7.3c0-4,3.1-7.2,7.1-7.2c1.8,0,3.5,0.5,4.8,1.7C41.4,13.3,41.4,15.2,41.4,15.2z"/>
	<path fill="#FFFFFF" d="M45.1,19c-0.1,3.5,2.3,5.8,5.5,5.8c2.2,0,3.9-1.3,4.9-3.1l1.1,0.7c-1.3,2.4-3.5,3.7-6.2,3.7
		c-4.1,0-6.7-3.3-6.7-7.3c0-3.9,2.7-7.2,6.7-7.2c4.2,0,6.7,3.4,6.7,7.3h-12V19z M55.8,17.8c-0.3-2.5-2.4-4.8-5.3-4.8
		c-2.8,0-5.2,2.2-5.4,4.8H55.8z"/>
	<path fill="#FFFFFF" d="M76.1,25.1c0,2.2,0,4.2-1.4,6.1c-1.3,1.7-3.4,2.5-5.5,2.5c-3.9,0-6.8-2.5-6.9-6.5h2.4
		c0,2.6,1.9,4.3,4.5,4.3c3.7,0,4.5-2.7,4.5-5.9v-1.7h-0.1c-1.1,1.5-3,2.3-4.9,2.3c-4.1,0-6.7-3.5-6.7-7.4c0-4,2.6-7.5,6.8-7.5
		c2,0,3.7,0.9,4.8,2.4h0.1v-2h2.4V25.1z M64.5,18.6c0,2.8,1.6,5.4,4.6,5.4c3.1,0,4.7-2.5,4.7-5.3s-1.8-5.1-4.7-5.1
		C66.3,13.6,64.5,16,64.5,18.6z"/>
	<path fill="#FFFFFF" d="M83.1,25.8h-2.4V1.1h2.4V25.8z"/>
	<path fill="#FFFFFF" d="M91,6.4c0,1-0.8,1.7-1.7,1.7s-1.7-0.8-1.7-1.7s0.8-1.7,1.7-1.7S91,5.5,91,6.4z M90.5,25.8h-2.4V11.7h2.4
		V25.8z"/>
	<path fill="#FFFFFF" d="M97.9,13.4L97.9,13.4c1-1.3,2.3-2.1,4.1-2.1c3.9,0,4.8,2.8,4.8,6.1v8.4h-2.4v-7.9c0-2.3-0.2-4.3-3-4.3
		c-3.3,0-3.5,3.1-3.5,5.6v6.7h-2.4V11.7h2.4V13.4z"/>
	<path fill="#FFFFFF" d="M113.6,16.9l5.1-5.2h3.2l-6,6l7.2,8.1h-3.2l-5.7-6.4l-0.6,0.6v5.8h-2.4V1.1h2.4V16.9z"/>
</g>
</svg>
