<?xml version="1.0" encoding="utf-8"?>
<!-- Generator: Adobe Illustrator 18.1.1, SVG Export Plug-In . SVG Version: 6.00 Build 0)  -->
<!DOCTYPE svg PUBLIC "-//W3C//DTD SVG 1.1//EN" "http://www.w3.org/Graphics/SVG/1.1/DTD/svg11.dtd">
<svg version="1.1" id="Layer_1" xmlns="http://www.w3.org/2000/svg" xmlns:xlink="http://www.w3.org/1999/xlink" x="0px" y="0px"
	 viewBox="0 0 30 30" enable-background="new 0 0 30 30" xml:space="preserve">
<g>
	<g>
		<path d="M23.3,11.6c0,0-0.2-1.2-0.7-1.7C22,9.2,21.3,9.2,21,9.1C18.6,9,15,9,15,9l0,0c0,0-3.6,0-5.9,0.2C8.7,9.2,8,9.2,7.3,9.9
			c-0.5,0.5-0.7,1.7-0.7,1.7S6.5,13,6.5,14.3v1.3c0,1.4,0.2,2.8,0.2,2.8s0.2,1.2,0.7,1.7c0.7,0.7,1.5,0.7,1.9,0.8
			C10.6,21,15,21,15,21s3.6,0,6-0.2c0.3,0,1-0.1,1.7-0.8c0.5-0.5,0.7-1.7,0.7-1.7s0.2-1.4,0.2-2.7v-1.3C23.5,13,23.3,11.6,23.3,11.6
			z M13.2,17.4v-4.8l4.5,2.4L13.2,17.4z"/>
	</g>
</g>
</svg>
