<?xml version="1.0" encoding="utf-8"?>
<!-- Generator: Adobe Illustrator 18.1.1, SVG Export Plug-In . SVG Version: 6.00 Build 0)  -->
<!DOCTYPE svg PUBLIC "-//W3C//DTD SVG 1.1//EN" "http://www.w3.org/Graphics/SVG/1.1/DTD/svg11.dtd">
<svg version="1.1" id="Layer_1" xmlns="http://www.w3.org/2000/svg" xmlns:xlink="http://www.w3.org/1999/xlink" x="0px" y="0px"
	 viewBox="0 0 30 30" enable-background="new 0 0 30 30" xml:space="preserve">
<path fill-rule="evenodd" clip-rule="evenodd" d="M20,13.9h-1.2c0.1,0.3,0.1,0.7,0.1,1.1c0,2.4-1.9,4.3-4.3,4.3
	c-2.4,0-4.3-1.9-4.3-4.3c0-0.4,0.1-0.7,0.1-1.1H9.2v5.9c0,0.3,0.2,0.5,0.5,0.5h9.7c0.3,0,0.5-0.2,0.5-0.5V13.9z M20,10.2
	c0-0.3-0.2-0.5-0.5-0.5h-1.6c-0.3,0-0.5,0.2-0.5,0.5v1.6c0,0.3,0.2,0.5,0.5,0.5h1.6c0.3,0,0.5-0.2,0.5-0.5V10.2z M14.6,12.3
	c-1.5,0-2.7,1.2-2.7,2.7c0,1.5,1.2,2.7,2.7,2.7s2.7-1.2,2.7-2.7C17.3,13.5,16.1,12.3,14.6,12.3 M20,22H9.2c-0.9,0-1.6-0.7-1.6-1.6
	V9.6C7.6,8.7,8.3,8,9.2,8H20c0.9,0,1.6,0.7,1.6,1.6v10.8C21.6,21.3,20.9,22,20,22"/>
</svg>
