<?xml version="1.0" encoding="utf-8"?>
<!-- Generator: Adobe Illustrator 18.1.1, SVG Export Plug-In . SVG Version: 6.00 Build 0)  -->
<!DOCTYPE svg PUBLIC "-//W3C//DTD SVG 1.1//EN" "http://www.w3.org/Graphics/SVG/1.1/DTD/svg11.dtd">
<svg version="1.1" id="Layer_1" xmlns="http://www.w3.org/2000/svg" xmlns:xlink="http://www.w3.org/1999/xlink" x="0px" y="0px"
	 viewBox="0 0 30 30" enable-background="new 0 0 30 30" xml:space="preserve">
<g>
	<path d="M29.4,25.3l-7.2-7.2c1-1.8,1.6-3.9,1.6-6.2c0-6.4-5.5-12.2-12.1-12.2C5.2,0,0,5.2,0,11.7s5.6,12.1,12.2,12.1
		c2.1,0,4.2-0.6,5.8-1.6l7.2,7.2c0.8,0.8,1.8,0.8,2.6,0l1.8-1.8C30.3,27,30,26.1,29.4,25.3z M3.6,11.7c0-4.5,3.6-8.1,8.1-8.1
		s8.5,4.1,8.5,8.6s-3.6,8.1-8.1,8.1S3.6,16.2,3.6,11.7z"/>
</g>
</svg>
