<?xml version="1.0" encoding="utf-8"?>
<!-- Generator: Adobe Illustrator 18.1.1, SVG Export Plug-In . SVG Version: 6.00 Build 0)  -->
<!DOCTYPE svg PUBLIC "-//W3C//DTD SVG 1.1//EN" "http://www.w3.org/Graphics/SVG/1.1/DTD/svg11.dtd">
<svg version="1.1" id="Layer_1" xmlns="http://www.w3.org/2000/svg" xmlns:xlink="http://www.w3.org/1999/xlink" x="0px" y="0px"
	 viewBox="0 0 30 30" enable-background="new 0 0 30 30" xml:space="preserve">
<g>
	<path d="M15,16.1L15,16.1c0.4,0,0.5-0.2,0.6-0.2l7-7H7.3l7,7C14.5,16.1,14.8,16.1,15,16.1z"/>
	<path d="M16.7,16.9c-0.4,0.4-1,0.6-1.7,0.6l0,0c-0.6,0-1.2-0.2-1.7-0.6l-1-1l-5,5.2h15.2l-5-5.2L16.7,16.9z"/>
	<polygon points="23.5,20.1 23.5,9.9 18.5,14.9 	"/>
	<polygon points="6.5,9.7 6.5,20.1 11.5,14.9 	"/>
</g>
</svg>
