<?xml version="1.0" encoding="utf-8"?>
<!-- Generator: Adobe Illustrator 18.1.1, SVG Export Plug-In . SVG Version: 6.00 Build 0)  -->
<!DOCTYPE svg PUBLIC "-//W3C//DTD SVG 1.1//EN" "http://www.w3.org/Graphics/SVG/1.1/DTD/svg11.dtd">
<svg version="1.1" id="Layer_1" xmlns="http://www.w3.org/2000/svg" xmlns:xlink="http://www.w3.org/1999/xlink" x="0px" y="0px"
	 viewBox="0 0 30 30" enable-background="new 0 0 30 30" xml:space="preserve">
<g>
	<g>
		<g>
			<path d="M8.9,11.9h2.9v9.4H8.9V11.9z M10.4,7.2c1,0,1.7,0.8,1.7,1.7c0,1-0.8,1.7-1.7,1.7c-1,0-1.7-0.8-1.7-1.7
				C8.8,8,9.5,7.2,10.4,7.2"/>
			<path d="M13.7,11.9h2.8v1.2l0,0c0.4-0.7,1.3-1.5,2.7-1.5c3,0,3.5,1.9,3.5,4.5v5.2h-2.9v-4.7c0-1.1,0-2.5-1.5-2.5
				c-1.5,0-1.8,1.1-1.8,2.4v4.7h-2.9C13.7,21.2,13.7,11.9,13.7,11.9z"/>
		</g>
	</g>
</g>
</svg>
