<?xml version="1.0" encoding="utf-8"?>
<!-- Generator: Adobe Illustrator 18.1.1, SVG Export Plug-In . SVG Version: 6.00 Build 0)  -->
<!DOCTYPE svg PUBLIC "-//W3C//DTD SVG 1.1//EN" "http://www.w3.org/Graphics/SVG/1.1/DTD/svg11.dtd">
<svg version="1.1" id="Layer_1" xmlns="http://www.w3.org/2000/svg" xmlns:xlink="http://www.w3.org/1999/xlink" x="0px" y="0px"
	 viewBox="0 0 30 30" enable-background="new 0 0 30 30" xml:space="preserve">
<g>
	<g>
		<path d="M10.5,25.3c-0.1-1-0.2-2.5,0-3.5c0.2-1,1.4-6.1,1.4-6.1s-0.4-0.7-0.4-1.8c0-1.7,1-3,2.2-3c1.1,0,1.6,0.8,1.6,1.7
			c0,1.1-0.7,2.6-1,4.1c-0.3,1.2,0.6,2.2,1.8,2.2c2.2,0,3.9-2.3,3.9-5.7c0-3-2.1-5-5.2-5c-3.5,0-5.6,2.6-5.6,5.4
			c0,1.1,0.4,2.2,0.9,2.8c0.1,0.1,0.1,0.2,0.1,0.4c-0.1,0.4-0.3,1.2-0.3,1.4c-0.1,0.2-0.2,0.3-0.4,0.2c-1.5-0.7-2.5-3-2.5-4.8
			C7.1,9.6,9.9,6,15.3,6c4.3,0,7.6,3.1,7.6,7.1c0,4.3-2.7,7.7-6.4,7.7c-1.3,0-2.4-0.7-2.8-1.4c0,0-0.6,2.4-0.8,2.9
			c-0.3,1.1-1,2.4-1.5,3.2c0,0-0.2,0.4-0.5,0.4C10.7,26,10.5,25.7,10.5,25.3z"/>
	</g>
</g>
</svg>
