<?xml version="1.0" encoding="utf-8"?>
<!-- Generator: Adobe Illustrator 18.1.1, SVG Export Plug-In . SVG Version: 6.00 Build 0)  -->
<!DOCTYPE svg PUBLIC "-//W3C//DTD SVG 1.1//EN" "http://www.w3.org/Graphics/SVG/1.1/DTD/svg11.dtd">
<svg version="1.1" id="Layer_1" xmlns="http://www.w3.org/2000/svg" xmlns:xlink="http://www.w3.org/1999/xlink" x="0px" y="0px"
	 viewBox="0 0 30 30" enable-background="new 0 0 30 30" xml:space="preserve">
<path d="M23.4,9.8c-0.6,0.3-1.3,0.4-2,0.5c0.7-0.4,1.3-1.1,1.5-1.9c-0.7,0.4-1.4,0.7-2.2,0.8c-0.6-0.7-1.5-1.1-2.5-1.1
	c-1.9,0-3.5,1.5-3.5,3.5c0,0.3,0,0.5,0.1,0.8c-2.9-0.2-5.4-1.5-7.2-3.6c-0.3,0.6-0.4,1.2-0.4,1.9c0,1.2,0.6,2.3,1.5,2.9
	c-0.6,0-1.1-0.2-1.6-0.4c0,0,0,0,0,0.1c0,1.7,1.2,3,2.8,3.4c-0.3,0.1-0.6,0.1-0.9,0.1c-0.3,0-0.4,0-0.7-0.1c0.4,1.3,1.7,2.4,3.2,2.4
	c-1.2,0.9-2.7,1.5-4.3,1.5c-0.3,0-0.6,0-0.8-0.1c1.5,1,3.4,1.5,5.3,1.5c6.3,0,9.8-5.3,9.8-9.8c0-0.2,0-0.3,0-0.4
	C22.4,11,22.9,10.4,23.4,9.8z"/>
</svg>
