<?xml version="1.0" encoding="utf-8"?>
<!-- Generator: Adobe Illustrator 18.1.1, SVG Export Plug-In . SVG Version: 6.00 Build 0)  -->
<!DOCTYPE svg PUBLIC "-//W3C//DTD SVG 1.1//EN" "http://www.w3.org/Graphics/SVG/1.1/DTD/svg11.dtd">
<svg version="1.1" id="Layer_1" xmlns="http://www.w3.org/2000/svg" xmlns:xlink="http://www.w3.org/1999/xlink" x="0px" y="0px"
	 viewBox="0 0 30 30" enable-background="new 0 0 30 30" xml:space="preserve">
<g>
	<g>
		<g>
			<path d="M8,11.6h3.3v10.7H8V11.6z M9.7,6.2c1.1,0,1.9,0.9,1.9,1.9c0,1.1-0.9,1.9-1.9,1.9c-1.1,0-1.9-0.9-1.9-1.9
				C7.8,7.1,8.6,6.2,9.7,6.2"/>
			<path d="M13.4,11.6h3.2V13h0c0.4-0.8,1.5-1.7,3.1-1.7c3.4,0,4,2.2,4,5.1v5.9h-3.3V17c0-1.2,0-2.8-1.7-2.8c-1.7,0-2,1.3-2,2.7v5.3
				h-3.3V11.6z"/>
		</g>
	</g>
</g>
</svg>
