<?xml version="1.0" encoding="utf-8"?>
<!-- Generator: Adobe Illustrator 18.1.1, SVG Export Plug-In . SVG Version: 6.00 Build 0)  -->
<!DOCTYPE svg PUBLIC "-//W3C//DTD SVG 1.1//EN" "http://www.w3.org/Graphics/SVG/1.1/DTD/svg11.dtd">
<svg version="1.1" id="Layer_1" xmlns="http://www.w3.org/2000/svg" xmlns:xlink="http://www.w3.org/1999/xlink" x="0px" y="0px"
	 viewBox="0 30 170 140" enable-background="new 0 30 170 140" xml:space="preserve">
<path fill="#E5ECEF" d="M158.4,54.7c-5.2,2.6-11.2,3.5-17.3,4.3c6-3.5,11.2-9.5,12.9-16.4c-6,3.5-12.1,6-19,6.9
	c-5.2-6-12.9-9.5-21.6-9.5c-16.4,0-30.2,12.9-30.2,30.2c0,2.6,0,4.3,0.9,6.9C59.1,75.4,37.5,64.2,22,46c-2.6,5.2-3.5,10.4-3.5,16.4
	c0,10.4,5.2,19.9,12.9,25c-5.2,0-9.5-1.7-13.8-3.5c0,0,0,0,0,0.9c0,14.7,10.4,25.9,24.2,29.4c-2.6,0.9-5.2,0.9-7.8,0.9
	c-2.6,0-3.5,0-6-0.9c3.5,11.2,14.7,20.7,27.6,20.7c-10.4,7.8-23.3,12.9-37.1,12.9c-2.6,0-5.2,0-6.9-0.9C24.6,155.7,41,160,57.4,160
	c54.4,0,84.6-45.8,84.6-84.6c0-1.7,0-2.6,0-3.5C149.7,65,154.1,59.9,158.4,54.7z"/>
</svg>
